<svg xmlns="http://www.w3.org/2000/svg" width="24" height="24" viewBox="0 0 24 24">
   <path
      d="M13.125 11.625V20.25C13.125 20.548 13.006 20.834 12.796 21.046C12.584 21.257 12.298 21.375 12 21.375C11.702 21.375 11.416 21.257 11.205 21.046C10.993 20.834 10.875 20.548 10.875 20.25V11.625C10.875 11.327 10.993 11.041 11.205 10.83C11.416 10.618 11.702 10.5 12 10.5C12.298 10.5 12.584 10.618 12.796 10.83C13.006 11.041 13.125 11.327 13.125 11.625ZM18.75 18C18.452 18 18.166 18.119 17.955 18.33C17.744 18.541 17.625 18.827 17.625 19.125V20.25C17.625 20.548 17.744 20.834 17.955 21.046C18.166 21.257 18.452 21.375 18.75 21.375C19.048 21.375 19.335 21.257 19.546 21.046C19.757 20.834 19.875 20.548 19.875 20.25V19.125C19.875 18.827 19.757 18.541 19.546 18.33C19.335 18.119 19.048 18 18.75 18ZM21 14.25H19.875V3.75C19.875 3.452 19.757 3.165 19.546 2.955C19.335 2.744 19.048 2.625 18.75 2.625C18.452 2.625 18.166 2.744 17.955 2.955C17.744 3.165 17.625 3.452 17.625 3.75V14.25H16.5C16.202 14.25 15.916 14.369 15.705 14.58C15.494 14.791 15.375 15.077 15.375 15.375C15.375 15.673 15.494 15.96 15.705 16.171C15.916 16.382 16.202 16.5 16.5 16.5H21C21.298 16.5 21.585 16.382 21.796 16.171C22.007 15.96 22.125 15.673 22.125 15.375C22.125 15.077 22.007 14.791 21.796 14.58C21.585 14.369 21.298 14.25 21 14.25ZM5.25 15C4.952 15 4.665 15.119 4.455 15.33C4.244 15.541 4.125 15.827 4.125 16.125V20.25C4.125 20.548 4.244 20.834 4.455 21.046C4.665 21.257 4.952 21.375 5.25 21.375C5.548 21.375 5.835 21.257 6.046 21.046C6.257 20.834 6.375 20.548 6.375 20.25V16.125C6.375 15.827 6.257 15.541 6.046 15.33C5.835 15.119 5.548 15 5.25 15ZM7.5 11.25H6.375V3.75C6.375 3.452 6.257 3.165 6.046 2.955C5.835 2.744 5.548 2.625 5.25 2.625C4.952 2.625 4.665 2.744 4.455 2.955C4.244 3.165 4.125 3.452 4.125 3.75V11.25H3C2.702 11.25 2.415 11.369 2.205 11.58C1.994 11.791 1.875 12.077 1.875 12.375C1.875 12.673 1.994 12.96 2.205 13.171C2.415 13.382 2.702 13.5 3 13.5H7.5C7.798 13.5 8.085 13.382 8.296 13.171C8.507 12.96 8.625 12.673 8.625 12.375C8.625 12.077 8.507 11.791 8.296 11.58C8.085 11.369 7.798 11.25 7.5 11.25ZM14.25 6.75H13.125V3.75C13.125 3.452 13.006 3.165 12.796 2.955C12.584 2.744 12.298 2.625 12 2.625C11.702 2.625 11.416 2.744 11.205 2.955C10.993 3.165 10.875 3.452 10.875 3.75V6.75H9.75C9.452 6.75 9.165 6.869 8.955 7.08C8.744 7.29 8.625 7.577 8.625 7.875C8.625 8.173 8.744 8.46 8.955 8.671C9.165 8.881 9.452 9 9.75 9H14.25C14.548 9 14.835 8.881 15.046 8.671C15.257 8.46 15.375 8.173 15.375 7.875C15.375 7.577 15.257 7.29 15.046 7.08C14.835 6.869 14.548 6.75 14.25 6.75Z"
      fill="black" />
</svg>